<svg xmlns="http://www.w3.org/2000/svg" viewBox="0 0 487.87 339"><g data-name="Layer 2"><rect width="17.92" height="16.72" x="754.46" y="465.39" fill="#e1e6fb" transform="rotate(-45 -92.353 1160.434)"/><rect width="17.92" height="16.72" x="768.46" y="480.39" fill="#e1e6fb" transform="rotate(-45 -78.346 1175.442)"/><rect width="17.92" height="16.72" x="771.46" y="450.39" fill="#e1e6fb" transform="rotate(-45 -75.352 1145.442)"/><rect width="17.92" height="16.72" x="1171.46" y="666.39" fill="#e1e6fb" transform="rotate(-45 324.654 1361.434)"/><rect width="17.92" height="16.72" x="1185.46" y="681.39" fill="#e1e6fb" transform="rotate(-45 338.649 1376.437)"/><rect width="17.92" height="16.72" x="1170.46" y="696.39" fill="#e1e6fb" transform="rotate(-45 323.653 1391.439)"/><rect width="122" height="63" x="124.79" fill="#bac5f4"/><rect width="46" height="102" x="51.79" y="236" fill="#e1e6fb"/><path fill="#e1e6fb" d="M810,649s-40-65-42-82-4-23-4-23,12-2,16,7,16-2,20,22c0,0,1,12,10,8S810,649,810,649Z" transform="translate(-736.21 -404)"/><path fill="#bac5f4" d="M815,659s-28.56-53-38-74c-7-15.58-13-41-13-41s-12.06,4.42-11,14c1,9-8,12-6,23,2.16,11.9,19.36,14.13,9,25-6.29,6.59-1.57,17.84,3,25,2.93,4.58,17.38,8.75,14,7C765.26,634,815,659,815,659Z" transform="translate(-736.21 -404)"/><ellipse cx="786" cy="591" fill="#bac5f4" rx="2" ry="26" transform="rotate(-24.72 -504.055 2068.776)"/><path fill="#e1e6fb" d="M823.59,691.49s-60.9-46-68.94-61.11-12.09-20-12.09-20,10.45-6.23,17.45.7,14.18-7.68,26.63,13.22c0,0,1.37,14.67,10.37,11.67C806.34,632.89,823.59,691.49,823.59,691.49Z" transform="translate(-736.21 -404)"/><path fill="#f8f8ff" d="M831.88,699S786,660,769.57,643.87c-12.19-12-27-33.47-27-33.47s-9.63,8.51-5.16,17c4.2,8-3.09,14.09,2.78,23.61,6.34,10.3,23.18,6.12,17.48,20-3.46,8.43,5,17.19,11.89,22.2,4.39,3.2,19.37,1.83,15.59,1.43C776.45,693.79,831.88,699,831.88,699Z" transform="translate(-736.21 -404)"/><ellipse cx="774.09" cy="658.21" fill="#e1e6fb" rx="2" ry="26" transform="rotate(-46.04 -69.396 1322.58)"/><path fill="#e1e6fb" d="M1141,569.09s47.54-77.3,50.59-97.89,5.57-27.81,5.57-27.81-13.2-3-18.08,7.8-17.63-3.15-23.25,25.87c0,0-1.7,14.56-11.48,9.29S1141,569.09,1141,569.09Z" transform="translate(-736.21 -404)"/><path fill="#bac5f4" d="M1135,581s34.27-63.21,45.76-88.34c8.53-18.65,16.43-49.31,16.43-49.31s13.15,5.93,11.5,17.53c-1.55,10.91,8.27,15,5.51,28.26-3,14.38-22.16,16.32-11.21,30,6.64,8.31.86,21.78-4.56,30.29-3.47,5.44-19.69,9.86-15.86,7.89C1191.32,552.85,1135,581,1135,581Z" transform="translate(-736.21 -404)"/><path fill="#bac5f4" d="M1168.49,498.49c-7.3,15.6-12.33,28.74-11.24,29.35s7.89-11.55,15.19-27.15,12.33-28.74,11.24-29.35S1175.78,482.88,1168.49,498.49Z" transform="translate(-736.21 -404)"/><path fill="#f8f8ff" d="M1123.84,620.18s69.76-53.24,79.42-71.26,14.38-23.76,14.38-23.76-11.27-8-19.37.07-15.33-10-30.16,14.89c0,0-2.24,17.79-12.07,13.73C1145.85,549.64,1123.84,620.18,1123.84,620.18Z" transform="translate(-736.21 -404)"/><path fill="#e1e6fb" d="M1114.28,628.93s52.77-45.38,71.77-64.26c14.1-14,31.59-39.51,31.59-39.51s10.25,10.79,4.87,21c-5.06,9.57,2.73,17.28-4.24,28.6-7.54,12.24-26,6.41-20.35,23.57,3.42,10.41-6.42,20.7-14.27,26.48-5,3.7-21.55,1.35-17.34,1C1176,625.1,1114.28,628.93,1114.28,628.93Z" transform="translate(-736.21 -404)"/><path fill="#fff" d="M1184.38,576.16c-11.44,12.16-20,22.81-19.16,23.78s10.81-8.11,22.25-20.28,20-22.81,19.16-23.78S1195.82,564,1184.38,576.16Z" transform="translate(-736.21 -404)"/><rect width="77" height="102" x="105.79" y="236" fill="#bac5f4"/><rect width="77" height="102" x="273.79" y="237" fill="#e1e6fb"/><rect width="50" height="64" x="253.79" fill="#e1e6fb"/><rect width="349" height="257" x="70.79" y="53" fill="#bac5f4"/><rect width="340" height="257" x="79.79" y="53" fill="#f8f8ff"/><rect width="333" height="18" x="82.79" y="57" fill="#fff"/><rect width="333" height="232" x="82.79" y="74" fill="#e1e6fb"/></g><g data-name="Layer 3"><rect width="41" height="46" x="137.79" y="83" fill="#bac5f4"/><rect width="41" height="46" x="183.79" y="83" fill="#bac5f4"/><rect width="41" height="46" x="228.79" y="83" fill="#bac5f4"/><rect width="41" height="46" x="274.79" y="83" fill="#fff"/><rect width="41" height="46" x="319.79" y="83" fill="#fff"/><rect width="41" height="46" x="365.79" y="83" fill="#fff"/><rect width="41" height="46" x="137.79" y="136" fill="#fff"/><rect width="41" height="46" x="183.79" y="136" fill="#fff"/><rect width="41" height="46" x="228.79" y="136" fill="#f8f8ff"/><rect width="41" height="46" x="274.79" y="136" fill="#fff"/><rect width="41" height="46" x="319.79" y="136" fill="#fff"/><rect width="41" height="46" x="365.79" y="136" fill="#fff"/><rect width="41" height="46" x="137.79" y="187" fill="#fff"/><rect width="41" height="46" x="183.79" y="187" fill="#fff"/><rect width="41" height="46" x="228.79" y="187" fill="#f8f8ff"/><rect width="41" height="46" x="274.79" y="187" fill="#fff"/><rect width="41" height="46" x="319.79" y="187" fill="#f8f8ff"/><rect width="41" height="46" x="365.79" y="187" fill="#fff"/><rect width="41" height="46" x="138.79" y="239" fill="#f8f8ff"/><rect width="41" height="46" x="184.79" y="239" fill="#f8f8ff"/><rect width="41" height="46" x="229.79" y="239" fill="#fff"/><rect width="41" height="46" x="275.79" y="239" fill="#fff"/><rect width="41" height="46" x="320.79" y="239" fill="#bac5f4"/><rect width="41" height="46" x="366.79" y="239" fill="#fff"/><circle cx="92.29" cy="66.5" r="3.5" fill="#bac5f4"/><circle cx="103.29" cy="66.5" r="3.5" fill="#bac5f4"/><circle cx="114.29" cy="66.5" r="3.5" fill="#bac5f4"/><rect width="37" height="9" x="92.79" y="135" fill="#fff" rx="4.5" ry="4.5"/><rect width="37" height="9" x="92.79" y="187" fill="#fff" rx="4.5" ry="4.5"/><rect width="37" height="9" x="92.79" y="239" fill="#fff" rx="4.5" ry="4.5"/><rect width="23" height="7" x="141.79" y="139" fill="#bac5f4" rx="3.5" ry="3.5"/><rect width="12" height="5" x="141.79" y="152" fill="#bac5f4" rx="2.5" ry="2.5"/><rect width="22" height="6" x="188.79" y="139" fill="#bac5f4" rx="3" ry="3"/><rect width="22" height="6" x="324.79" y="246" fill="#fff" rx="3" ry="3"/><rect width="22" height="6" x="369.79" y="192" fill="#f5f5fc" rx="3" ry="3"/><rect width="22" height="6" x="368.79" y="140" fill="#f5f5fc" rx="3" ry="3"/><rect width="22" height="6" x="323.79" y="140" fill="#f5f5fc" rx="3" ry="3"/><circle cx="192.79" cy="153" r="4" fill="#bac5f4"/><circle cx="283.79" cy="146" r="4" fill="#bac5f4"/><circle cx="297.79" cy="146" r="4" fill="#bac5f4"/><circle cx="297.79" cy="196" r="4" fill="#bac5f4"/><circle cx="283.79" cy="196" r="4" fill="#bac5f4"/><circle cx="296.79" cy="247" r="4" fill="#bac5f4"/><circle cx="282.79" cy="247" r="4" fill="#bac5f4"/><circle cx="160.79" cy="248" r="4" fill="#bac5f4"/><circle cx="146.79" cy="248" r="4" fill="#bac5f4"/><circle cx="283.79" cy="92" r="4" fill="#bac5f4"/><circle cx="236.79" cy="92" r="4" fill="#fff"/><circle cx="250.79" cy="92" r="4" fill="#fff"/><circle cx="191.79" cy="92" r="4" fill="#fff"/><circle cx="205.79" cy="92" r="4" fill="#fff"/><circle cx="146.79" cy="92" r="4" fill="#fff"/><circle cx="160.79" cy="92" r="4" fill="#fff"/><text fill="#bac5f4" font-family="RevaloModernBold,Revalo ModernBold" font-size="28" transform="translate(298.27 124.69)">4</text><text fill="#fff" font-family="RevaloModernBold,Revalo ModernBold" font-size="28" transform="translate(209.27 124.69)">2</text><text fill="#bac5f4" font-family="RevaloModernBold,Revalo ModernBold" font-size="28" transform="translate(162.61 176.49)">7</text><text fill="#bac5f4" font-family="RevaloModernBold,Revalo ModernBold" font-size="28" transform="translate(289.6 176.55)">10</text><text fill="#bac5f4" font-family="RevaloModernBold,Revalo ModernBold" font-size="28" transform="translate(247.25 228.32)">15</text><text fill="#bac5f4" font-family="RevaloModernBold,Revalo ModernBold" font-size="28" transform="translate(382.25 230.32)">18</text><text fill="#bac5f4" font-family="RevaloModernBold,Revalo ModernBold" font-size="28" letter-spacing="-.01em" transform="translate(195 277.71)">2<tspan x="11.73" y="0" letter-spacing="0">0</tspan></text></g></svg>